<svg xmlns="http://www.w3.org/2000/svg" version="1.1" xmlns:xlink="http://www.w3.org/1999/xlink" xmlns:svgjs="http://svgjs.com/svgjs" width="1440" height="560" preserveAspectRatio="none" viewBox="0 0 1440 560"><g mask="url(&quot;#SvgjsMask1009&quot;)" fill="none"><rect width="1440" height="560" x="0" y="0" fill="rgba(75, 137, 201, 1)"></rect><path d="M307.6177724386154 503.8207262725809L323.6468959855057 402.6168231994889 163.82647960242264 429.1750894156995z" fill="rgba(28, 83, 142, 0.4)" class="triangle-float2"></path><path d="M783.0872783790791 227.59122147720586L757.2726913659235 169.61070974250822 683.2092172704548 237.32284612959046z" fill="rgba(28, 83, 142, 0.4)" class="triangle-float2"></path><path d="M1094.2422321281276 66.31197466411899L1087.8568178169573 157.62765363899626 1228.0230434348584 121.54793561831296z" fill="rgba(28, 83, 142, 0.4)" class="triangle-float1"></path><path d="M518.96 53.44 a117.26 117.26 0 1 0 234.52 0 a117.26 117.26 0 1 0 -234.52 0z" fill="rgba(28, 83, 142, 0.4)" class="triangle-float3"></path><path d="M336.76 122.12 a116.45 116.45 0 1 0 232.9 0 a116.45 116.45 0 1 0 -232.9 0z" fill="rgba(28, 83, 142, 0.4)" class="triangle-float3"></path><path d="M1244.257,751.771C1297.498,750.553,1342.609,717.564,1370.18,672.002C1398.921,624.506,1414.273,565.242,1386.063,517.429C1358.19,470.187,1299.027,455.586,1244.257,458.576C1194.969,461.267,1152.997,489.644,1126.95,531.573C1099.113,576.382,1083.142,631.442,1107.945,678C1133.98,726.872,1188.897,753.037,1244.257,751.771" fill="rgba(28, 83, 142, 0.4)" class="triangle-float1"></path><path d="M732.836,484.083C775.668,486.106,822.164,475.262,843.745,438.208C865.427,400.981,851.335,355.499,829.278,318.493C807.864,282.566,774.655,252.858,732.836,252.129C689.895,251.381,650.61,277.137,630.39,315.027C611.249,350.895,617.633,393.752,638.703,428.522C658.942,461.92,693.827,482.24,732.836,484.083" fill="rgba(28, 83, 142, 0.4)" class="triangle-float2"></path><path d="M904.5477789494956 186.21618070661802L1058.7107809404283 210.63320149570225 928.9647997385798 32.05317871568522z" fill="rgba(28, 83, 142, 0.4)" class="triangle-float3"></path><path d="M392.769,174.272C413.799,174.994,438.045,173.6,448.549,155.367C459.044,137.151,447.419,115.885,436.89,97.689C426.386,79.537,413.732,59.583,392.769,58.971C371.106,58.339,354.153,75.857,343.949,94.976C334.398,112.872,332.619,134.476,343.254,151.75C353.443,168.299,373.346,173.605,392.769,174.272" fill="rgba(28, 83, 142, 0.4)" class="triangle-float2"></path><path d="M928.25,483.007C959.032,483.654,987.388,468.467,1004.52,442.885C1024.069,413.694,1036.736,376.763,1020.139,345.799C1002.855,313.553,964.799,298.945,928.25,300.593C894.444,302.117,865.036,323.332,849.675,353.485C835.624,381.067,841.284,413.325,857.34,439.791C872.728,465.156,898.589,482.383,928.25,483.007" fill="rgba(28, 83, 142, 0.4)" class="triangle-float1"></path></g><defs><mask id="SvgjsMask1009"><rect width="1440" height="560" fill="#ffffff"></rect></mask><style>
            @keyframes float1 {
                0%{transform: translate(0, 0)}
                50%{transform: translate(-50px, 0)}
                100%{transform: translate(0, 0)}
            }

            .triangle-float1 {
                animation: float1 5s infinite;
            }

            @keyframes float2 {
                0%{transform: translate(0, 0)}
                50%{transform: translate(-5px, -5px)}
                100%{transform: translate(0, 0)}
            }

            .triangle-float2 {
                animation: float2 4s infinite;
            }

            @keyframes float3 {
                0%{transform: translate(0, 1)}
                50%{transform: translate(0, -10px)}
                100%{transform: translate(0, 0)}
            }

            .triangle-float3 {
                animation: float3 6s infinite;
            }
        </style></defs></svg>