<svg width="25" height="25" viewBox="0 0 25 25" fill="none" xmlns="http://www.w3.org/2000/svg">
<path d="M12.4888 0.794923C5.58873 0.792236 0 6.17176 0 12.8115C0 18.0621 3.49609 22.5253 8.36495 24.1644C9.02065 24.323 8.9202 23.8742 8.9202 23.5679V21.4854C5.13393 21.9127 4.98047 19.4997 4.72656 19.0966C4.21317 18.2529 2.99944 18.0379 3.36216 17.6348C4.22433 17.2076 5.10324 17.7423 6.12165 19.1907C6.85826 20.2413 8.2952 20.064 9.02344 19.8893C9.18248 19.2578 9.52288 18.6935 9.99163 18.2555C6.06864 17.5784 4.43359 15.2729 4.43359 12.5321C4.43359 11.202 4.88839 9.97935 5.78125 8.9932C5.21205 7.36751 5.83426 5.97561 5.91797 5.7687C7.53906 5.62897 9.22433 6.88653 9.35547 6.98595C10.2762 6.7468 11.3281 6.62051 12.5056 6.62051C13.6886 6.62051 14.7433 6.75217 15.6724 6.99401C15.9877 6.76292 17.5502 5.68272 19.0569 5.81438C19.1378 6.02129 19.7461 7.38095 19.2104 8.98513C20.1144 9.97398 20.5748 11.2073 20.5748 12.5401C20.5748 15.2863 18.9286 17.5945 14.9944 18.2609C15.3314 18.5801 15.5989 18.9607 15.7815 19.3805C15.964 19.8004 16.0578 20.251 16.0575 20.7062V23.7291C16.0798 23.971 16.0575 24.2101 16.476 24.2101C21.4174 22.6059 24.9749 18.1104 24.9749 12.8142C24.9749 6.17176 19.3834 0.794923 12.4888 0.794923V0.794923Z" fill="black"/>
</svg>
