<svg width="26" height="26" viewBox="0 0 26 26" fill="none" xmlns="http://www.w3.org/2000/svg">
<path d="M5.75 2.80573C4.57639 2.80573 3.625 3.72196 3.625 4.8522C3.625 5.98244 4.57639 6.89868 5.75 6.89868C6.9236 6.89868 7.875 5.98244 7.875 4.8522C7.875 3.72196 6.9236 2.80573 5.75 2.80573Z" fill="black"/>
<path d="M3.75 8.58401C3.68096 8.58401 3.625 8.63791 3.625 8.7044V21.224C3.625 21.2905 3.68096 21.3444 3.75 21.3444H7.75C7.81904 21.3444 7.875 21.2905 7.875 21.224V8.7044C7.875 8.63791 7.81904 8.58401 7.75 8.58401H3.75Z" fill="black"/>
<path d="M10.25 8.58401C10.181 8.58401 10.125 8.63791 10.125 8.7044V21.224C10.125 21.2905 10.181 21.3444 10.25 21.3444H14.25C14.319 21.3444 14.375 21.2905 14.375 21.224V14.4827C14.375 14.0038 14.5725 13.5445 14.9242 13.2059C15.2758 12.8672 15.7527 12.677 16.25 12.677C16.7473 12.677 17.2242 12.8672 17.5758 13.2059C17.9275 13.5445 18.125 14.0038 18.125 14.4827V21.224C18.125 21.2905 18.181 21.3444 18.25 21.3444H22.25C22.319 21.3444 22.375 21.2905 22.375 21.224V12.9228C22.375 10.5857 20.2644 8.75736 17.8498 8.96875C17.1052 9.03395 16.369 9.21222 15.6815 9.49597L14.375 10.0352V8.7044C14.375 8.63791 14.319 8.58401 14.25 8.58401H10.25Z" fill="black"/>
<rect x="0.5" y="0.5" width="25" height="24.1132" rx="3.5" stroke="black"/>
</svg>
